<?xml version="1.0" encoding="utf-8"?>
<!-- Generator: Adobe Illustrator 22.0.1, SVG Export Plug-In . SVG Version: 6.00 Build 0)  -->
<svg version="1.1" id="Layer_1" xmlns="http://www.w3.org/2000/svg" xmlns:xlink="http://www.w3.org/1999/xlink" x="0px" y="0px"
	 width="300px" height="170px" viewBox="0 0 300 170" style="enable-background:new 0 0 300 170;" xml:space="preserve">
<style type="text/css">
	.st0{display:none;}
	.st1{fill:#562873;}
</style>
<g id="bHQvQk.tif" class="st0">
	<image style="display:inline;overflow:visible;" width="300" height="170" id="Layer_0" xlink:href="B6842C0E40B14464.png" >
	</image>
</g>
<path class="st1" d="M136.4,144.3l2.4,4.6c1.5,2.4,3.9,2.3,3.9,2.3h9.8c2.4-0.3,1.2-2.4,1.2-2.4s-6.8-12.6-8.2-15.2
	c-1.1-2.7,0.6-4.6,0.6-4.6l7.1-9.2c1.4-2-0.8-2.1-0.8-2.1h-10.3c-2.5,0.1-3.9,2-3.9,2s-3.3,4.7-4.4,6.4c-1.3,1.5-1.4-0.6-1.4-0.6
	v-16.3c0-2.9-2.7-2.8-2.7-2.8h-8.3c-2.9-0.1-2.9,2.6-2.9,2.6v39.6c0.2,2.7,2.6,2.7,2.6,2.7h8.6c2.8-0.1,2.7-2.7,2.7-2.7v-2.3
	c0,0,0-0.6,0.4-1.1l1.8-2.3c0,0,0.5-0.8,0.9,0C135.9,143.5,136.4,144.3,136.4,144.3z M190,114.7c0,2.8-1.6,3-2,3
	c-1.8,0.1-2,2.4-2,2.4v5.7c0,2,1.2,2.6,2,2.7c1.9,0.2,2,2.5,2,2.5v9.2c0.1,2.6,0.3,3.4,0.6,4.7c1.8,5.7,6.6,6.5,8,6.8
	c4.7,0.8,7.2,0.2,9.2-0.3c3.8-0.7,3.8-3.9,3.8-3.9v-7c0-1-0.8-0.8-1.2-0.7c-1.7,0.5-2.3,0.5-3.1,0.6c-1.6,0-2.1-0.6-2.5-0.9
	c-0.7-0.8-0.7-2.3-0.7-2.3v-6c0.1-2.8,2.7-2.7,2.7-2.7h2.3c2.7-0.1,2.7-2.7,2.7-2.7v-5.3c-0.1-3-2.8-2.8-2.8-2.8h-2.1
	c-2.9-0.1-2.9-2.7-2.9-2.7v-2.9c0-2.8-2.5-2.9-2.5-2.9h-8.8c-2.6,0.1-2.7,2.6-2.7,2.6S190,112.5,190,114.7L190,114.7z M74.9,139.7
	c-0.5,3.9-3.5,4.2-3.5,4.2c-2.2,0.2-2.6-0.4-3.1-0.8c-1.3-1.4-0.9-3.1-0.7-3.8c1-2.4,3.5-2.4,4.2-2.4
	C75.4,137.1,75,138.9,74.9,139.7L74.9,139.7z M88.7,132c0-1.3,0.1-4.9-1.7-8.2c-2-3.6-5.8-5.1-5.8-5.1c-3.6-1.7-9.5-1.7-11.6-1.7
	c-5.3,0.4-7.4,1-9.9,1.6c-2.8,0.8-2.2,3.3-2.2,3.3s1.1,4.1,1.4,5.4c0.3,1.2,1.4,1,1.8,0.9c5.7-1.9,9.1-1.4,10.6-1.1
	c2.9,0.9,3.2,2.7,3.4,3.6c0.2,1.2-0.5,1.3-1,1.2c-2.1-0.5-4.7-0.9-6.3-0.9c-4.8,0-7.3,1.1-8.9,2c-4.2,2.8-4.4,6.1-4.4,8.8
	c0.1,5.5,3.2,7.5,4.2,8.3c2.8,1.8,6,1.8,7.2,1.8c4.3-0.3,6.7-2.3,7.3-2.7c0.3-0.2,0.7-0.4,1-0.5c0.9-0.1,0.8,0.3,0.9,0.6
	c0.1,1.7,2.5,1.7,2.5,1.7h8.6c3.1,0,2.9-2.8,2.9-2.8S88.8,133.5,88.7,132z M102.7,151.2c2.8,0,2.8-2.6,2.8-2.6v-6.6
	c0.1-4.6,1.7-6.7,2.1-7.2c2.3-3,7-2.8,7-2.8c1.5,0,1.4-1.4,1.4-1.4s0-10.7,0-12.1c0-1.3-1.1-1.3-1.7-1.3c-3.2,0.5-5.4,2.8-6,3.4
	c-0.5,0.5-1.5,1.9-1.8,2.2c-1,0.8-1-0.8-1-0.8v-1.5c-0.1-2.8-2.6-2.8-2.6-2.8h-8.8c-2.4,0.2-2.6,2.5-2.6,2.5v28.3
	c0,2.7,2.5,2.8,2.5,2.8S102.7,151.2,102.7,151.2z M171.2,131.4h-4.5c0,0-2.6-0.2-1.3-2.8c0.4-0.8,1.7-2.6,4-2.2
	c1.3,0.3,2.3,0.8,3.3,2.5C172.9,129.6,173.5,131.3,171.2,131.4z M185.8,132c-0.9-7.2-4.4-10.3-5.6-11.4c-4.4-4-11.1-3.9-11.1-3.9
	c-4.8-0.1-7.9,1.5-7.9,1.5c-3.5,1.6-6.4,4.3-8.1,7.8c-2.4,4.7-1.9,9.8-1.8,10.9c0.2,1.7,0.7,4.6,3.1,8c1.8,2.5,5.5,6,12.7,6.8
	c10.7,1.1,15.8-4.8,16.5-5.6c1.2-1.3,0.7-2.2,0.1-2.7l-4.7-3.7c-1.4-1.1-2.2-0.3-2.7,0c-1.2,1.1-2.7,1.8-3.6,2
	c-4.4,1.1-6.6-1.8-7-2.5c-0.8-1.9,1.5-1.7,1.5-1.7s16.4-0.1,17.1,0c1.8-0.2,1.6-1.1,1.7-1.7C186.1,134.4,186,133.6,185.8,132z
	 M28.6,143.9c0.2-0.3,0.4-0.6,0.7-1l7-10.8c0.8-1.2,1.5-1,1.5,0.4v16c0,1.5,1.2,2.7,2.7,2.7h9c1.5,0,2.7-1.2,2.7-2.7v-37.7
	c0-1.5-1.2-2.7-2.7-2.7h-9.7c-1.5,0-3.3,1-4.1,2.3l-6.4,10.6c-0.8,1.2-2,1.2-2.8,0l-6.4-10.6c-0.8-1.3-2.6-2.3-4.1-2.3H6.2
	c-1.5,0-2.7,1.2-2.7,2.7c0,0,0,0,0,0v37.7c0,1.5,1.2,2.7,2.7,2.7H15c1.5,0,2.7-1.2,2.7-2.7c0,0,0,0,0,0v-16c0-1.5,0.7-1.7,1.5-0.4
	l7,10.8c0.2,0.3,0.5,0.7,0.6,1C27.2,144.5,28.1,144.7,28.6,143.9L28.6,143.9z M106.9,80.7c0,3.4-2.4,6-5.6,6c-3.2,0-5.6-2.7-5.6-6
	v-0.1c0-3.4,2.4-6,5.6-6c3.2,0,5.6,2.7,5.6,6V80.7z M120,75.7c-1.2-5.8-4.4-8.8-6.1-10.1c-5.4-4-10.9-2.3-11.8-2
	c-2.5,0.8-4.5,2.7-4.8,3c-1.1,0.6-1.2-0.2-1.3-0.5c0-2.2-2.5-2.2-2.4-2.2h-8.9C82,64,82,66.4,82,66.4v12.9c0,0,0,22,0,25.2
	c0.1,2.8,2.6,2.8,2.6,2.8h8.6c2.9-0.1,2.8-2.8,2.8-2.8v-9.5c0,0,0.2-0.9,0.9-0.4c3.6,3.5,6.9,3.6,8.8,3.7c5.4,0.2,8.6-2.9,9.6-3.8
	c3.2-3.2,4.2-7.2,4.2-7.2C121.1,81.9,120.3,77.3,120,75.7L120,75.7z M43.4,86.2c-0.1,1.9,0.6,4.2,0.6,4.2c2,6.8,7.8,7.7,10.4,7.8
	c4.9,0.1,8-2.7,8.6-3.2c0.5-0.5,0.8-0.7,1.3-0.9c0.7-0.1,0.9,0.5,0.9,1c0.1,2.2,2.5,2.3,2.5,2.3h8.9c2.7-0.3,2.6-2.8,2.6-2.8v-28
	c-0.1-2.8-2.6-2.8-2.6-2.8h-8.9c-2.7,0.4-2.5,2.8-2.5,2.8v15.2c0,0,0,4-3.9,4.3c-3.9,0-3.9-4.5-3.9-4.5V66.5c0-2.6-2.5-2.8-2.5-2.8
	H46c-2.6,0.3-2.6,2.7-2.6,2.7S43.4,86.2,43.4,86.2z M169.9,97.4c2.8,0,2.8-2.6,2.8-2.6v-6.6c0.1-4.6,1.7-6.6,2.1-7.2
	c2.3-3,7-2.8,7-2.8c1.5,0,1.4-1.4,1.4-1.4s-0.1-10.7,0-12.1c0-1.3-1.1-1.3-1.7-1.3c-3.2,0.5-5.4,2.8-6,3.4c-0.6,0.5-1.6,1.9-1.8,2.2
	c-1,0.8-1-0.8-1-0.8v-1.5c-0.1-2.8-2.6-2.8-2.6-2.8h-8.8c-2.4,0.2-2.6,2.5-2.6,2.5v28.3c0,2.7,2.5,2.8,2.5,2.8L169.9,97.4
	L169.9,97.4z M15.9,97.7c8.4,1.2,12.5-0.1,14.5-0.6c6.3-1.8,8.7-5.6,9.6-7.4c2.2-4.5,1.2-8.8,0.7-10.2c-1.5-4-4.4-5.5-6.6-6.7
	c-3.7-1.8-8-2.6-10.6-3.1c-2.5-0.5-3.2-0.7-4.3-1c-2-0.7-1.9-1.2-2-1.7c-0.2-0.8,0.5-1.5,1.1-1.8c2.1-0.9,4.5,0,6.6,0.6
	c1.7,0.5,3.4,1.1,5.1,1.8c0.5,0.2,1,0.4,1.5,0.6c1.7,0.9,3-0.7,3-0.7l4.9-6.8c0.5-0.7,0.3-1.9-0.3-2.4c-0.9-0.6-1-0.6-2.6-1.6
	c-6.3-3.3-14-3.3-14-3.3s0.1-0.1-2.3,0c-7.1,0.1-11.4,3-12.4,3.8c-3.9,3.1-4.7,6.9-5,8.7c-0.8,5.8,1.9,8.8,2.7,9.6
	c2.6,2.8,6.7,4.1,8.9,4.8c3,0.9,6.8,1.6,8.6,2c3.7,0.8,3.7,1.7,3.8,2.4c0,1.7-1.8,1.9-3.6,2c-4.9,0-12-3.5-13.5-4.2
	c-1.6-0.7-2.8,0.5-2.8,0.5l-5.2,6.1c-1.1,1.4-0.7,2.4,0,2.9c5,3.9,12.1,5.3,12.1,5.3S15.9,97.7,15.9,97.7z M141.9,77.7h-4.5
	c0,0-2.6-0.2-1.3-2.8c0.4-0.8,1.7-2.6,4-2.2c1.3,0.3,2.3,0.8,3.3,2.5C143.6,75.9,144.2,77.6,141.9,77.7z M156.6,78.3
	c-1-7.2-4.4-10.3-5.6-11.4c-4.5-4-11.1-3.9-11.1-3.9c-4.8-0.1-7.9,1.5-7.9,1.5c-5,2.3-7.3,6.2-8.1,7.8c-2.4,4.7-1.9,9.9-1.8,11
	c0.2,1.7,0.6,4.6,3.1,8c1.8,2.5,5.5,6,12.7,6.8c10.7,1.1,15.9-4.8,16.5-5.5c1.2-1.3,0.7-2.2,0.1-2.7c0,0-3.2-2.5-4.7-3.7
	c-1.4-1.1-2.2-0.3-2.7,0c-1.2,1.1-2.7,1.8-3.6,2c-4.4,1.1-6.6-1.8-7-2.5c-0.8-1.9,1.5-1.8,1.5-1.8s16.4-0.1,17.1,0
	c1.8-0.1,1.6-1.1,1.7-1.7C156.8,80.6,156.7,79.8,156.6,78.3L156.6,78.3z M105.5,44.3c2.8-0.2,2.7-2.8,2.7-2.8s0-13.7,0-14.9
	c-0.1-0.7,0.3-4.3,4-4.5c3.9,0.2,3.9,4.4,3.9,4.4v15.3c0.2,2.4,2.4,2.5,2.4,2.5h9.1c2.4-0.2,2.5-2.6,2.5-2.6s0-18.8,0-19.7
	c-0.1-5.4-2.2-7.8-3.1-8.9c-2.3-2.4-5.2-3.3-8.4-3.3c-4.7,0.1-7.8,3.1-8.7,3.8c-1.5,1.1-1.6-0.2-1.6-0.6c-0.2-2.2-2.4-2.4-2.4-2.4
	h-9.2c-1.3,0.1-2.4,1.1-2.5,2.4v28.1C94,42.7,95,44,96.4,44.3c0.1,0,0.2,0,0.2,0L105.5,44.3L105.5,44.3z M170.3,27.2l6.2,15.3
	c0.7,1.5,0.3,2.1-0.5,1.9c-2.3-0.4-3.6-0.9-4.9-1.4c-2.5-1.1-3.5,1.1-3.5,1.1s-1.7,3.9-2.2,5.2c-0.5,1.1-0.2,2.6,1.4,3.2
	c1.5,0.7,2.9,1.1,4.7,1.6c8,1.8,12-0.2,13.4-1c4.7-2.6,7-10.1,8-12.6c0-0.1,8.8-23.8,9.9-26.6c1.1-2.8-1.7-2.8-1.7-2.8H192
	c-2.6,0.2-3.3,2.5-3.3,2.5s-3.6,11.9-3.9,12.8c-0.2,0.6-0.5,0.9-0.7,0.9c-0.5,0-0.8-0.8-0.8-0.8s-3.2-9.8-4.2-12.8
	c-1.1-2.7-3.5-2.6-3.5-2.6s-6.8,0-9.2,0c-2.6,0.2-1.6,2.4-1.6,2.4S170.3,27.2,170.3,27.2z M151.8,25h-4.5c0,0-2.6-0.2-1.3-2.8
	c0.4-0.8,1.7-2.6,3.9-2.2c1.3,0.3,2.4,0.8,3.3,2.5C153.5,23.2,154.1,24.9,151.8,25L151.8,25z M166.5,25.6
	c-0.9-7.2-4.4-10.3-5.6-11.4c-4.4-4-11.1-3.9-11.1-3.9c-4.7-0.1-7.9,1.5-7.9,1.5c-5,2.3-7.4,6.2-8.1,7.8c-2.4,4.7-1.9,9.9-1.7,11
	c0.2,1.7,0.6,4.6,3,8c1.9,2.5,5.5,6,12.7,6.8c10.7,1.1,15.9-4.8,16.5-5.6c1.2-1.2,0.6-2.2,0-2.7l-4.7-3.8c-1.4-1.1-2.2-0.3-2.6,0
	c-1.2,1.1-2.7,1.8-3.6,2c-4.4,1.1-6.6-1.8-7-2.5c-0.8-1.9,1.5-1.8,1.5-1.8s16.4-0.1,17.1,0c1.8-0.1,1.6-1.1,1.7-1.7
	C166.7,28,166.6,27.2,166.5,25.6z M28.6,37c0.2-0.3,0.4-0.7,0.7-1l7-10.8c0.8-1.2,1.5-1,1.5,0.4v16c0,1.5,1.2,2.7,2.7,2.7h9
	c1.5,0,2.7-1.2,2.7-2.7V3.8c0-1.5-1.2-2.7-2.7-2.7h-9.7c-1.5,0-3.3,1-4.1,2.3L29.2,14c-0.8,1.3-2,1.3-2.8,0L19.9,3.5
	c-0.8-1.3-2.6-2.3-4.1-2.3H6.2c-1.5,0-2.7,1.2-2.7,2.7v37.7c0,1.5,1.2,2.7,2.7,2.7H15c1.5,0,2.7-1.2,2.7-2.7v-16
	c0-1.5,0.7-1.7,1.5-0.4l7,10.8c0.2,0.4,0.5,0.7,0.6,1C27.2,37.6,28.1,37.8,28.6,37L28.6,37z M78.7,27.6v-0.1c0-3.3-2.4-6-5.5-6
	c-3.2,0-5.4,2.6-5.4,5.8v0.1c0,3.3,2.5,6,5.6,6C76.4,33.4,78.7,30.8,78.7,27.6z M54.3,27.6v-0.1c0-9.5,7.9-17.6,19-17.6
	c11,0,18.8,8,18.8,17.5v0.1c0,9.5-7.9,17.6-18.9,17.6C62.1,45.1,54.3,37.1,54.3,27.6z"/>
</svg>
